<svg width="468" height="217" viewBox="0 0 468 217" fill="none" xmlns="http://www.w3.org/2000/svg">
<path d="M312.348 177.368C279.277 207.919 221.624 206.082 185.788 178.75C168.381 192.381 138.278 188.509 121.87 173.716C113.072 184.308 98.9076 190.295 85.0868 189.276C71.266 188.256 53.1204 167.862 46.0122 156.097C31.3745 163.855 11.3216 156.145 3.79203 141.506C-3.74121 126.864 0.468978 107.915 11.8354 95.9379C23.2055 83.9571 40.501 78.5616 57.0941 79.2156C73.6946 79.877 89.1418 83.0146 103.473 91.3207C84.1147 86.1738 74.1973 62.1454 80.4478 43.3071C86.6911 24.4669 105.254 11.5613 124.764 6.9982C153.969 0.176453 186.593 10.41 206.48 32.6345C218.782 16.4522 250.885 16.2695 261.161 33.7784C269.984 27.7245 282.493 27.9475 292.177 32.5361C301.865 37.1244 308.718 47.083 309.48 57.681C328.136 43.1671 364.275 64.8801 372.123 87.0318C380.088 81.8191 394.331 88.9399 402.359 94.0554C410.391 99.1668 414.912 109.181 413.411 118.506C421.935 107.063 446.132 113.659 457.055 122.901C467.974 132.139 470.694 148.793 465.346 161.987C460.001 175.182 447.792 184.888 434.267 189.686C420.734 194.486 405.974 194.844 391.677 193.403C365.587 190.771 334.686 190.954 312.348 177.368Z" fill="#CCF3FF"/>
<path d="M176.203 119.458C183.037 113.93 192.167 111.272 200.943 112.263C209.711 113.257 217.669 117.049 223.062 123.962C232.155 118.485 241.522 112.91 252.001 111.045C262.484 109.172 274.479 111.809 280.885 120.222C276.841 109.432 268.572 101.612 257.198 99.2024C245.824 96.7931 233.316 100.501 225.154 108.701C217.003 104.105 206.628 101.883 197.409 103.623C188.194 105.368 182.065 112.214 176.203 119.458Z" fill="#E6F9FF"/>
<path d="M171.065 87.3691C177.933 79.2743 188.146 74.0345 198.792 73.1436C209.441 72.2511 220.393 75.717 228.544 82.5534C222.212 70.8355 208.672 62.9239 195.299 64.1348C181.921 65.3446 175.142 74.7116 171.065 87.3691Z" fill="#E6F9FF"/>
<path d="M309.665 109.671C313.978 104.588 320.388 101.298 327.075 100.739C333.762 100.179 340.637 102.354 345.756 106.643C341.779 99.2908 333.277 94.3227 324.883 95.0824C316.481 95.8436 312.223 101.722 309.665 109.671Z" fill="#E6F9FF"/>
<path d="M18.0121 131.295C22.3295 126.21 28.7391 122.924 35.4259 122.359C42.1126 121.801 48.9916 123.98 54.1074 128.268C50.1338 120.913 41.6321 115.944 33.2302 116.704C24.832 117.465 20.5774 123.348 18.0121 131.295Z" fill="#E6F9FF"/>
<path d="M121.374 38.7028C125.692 33.6213 132.101 30.3309 138.788 29.7712C145.475 29.2129 152.354 31.3879 157.473 35.6793C153.496 28.3245 144.994 23.356 136.592 24.1157C128.194 24.8769 123.936 30.7594 121.374 38.7028Z" fill="#E6F9FF"/>
<path d="M109.014 75.6953C113.327 70.6097 119.74 67.3223 126.423 66.7596C133.114 66.1999 139.989 68.3748 145.109 72.6677C141.131 65.3115 132.63 60.343 124.235 61.1041C115.833 61.8639 111.575 67.7434 109.014 75.6953Z" fill="#E6F9FF"/>
<path d="M448.461 147.1C443.663 154.101 436.174 159.257 427.864 161.27C419.555 163.29 408.839 162.17 401.306 158.155C395.802 163.34 387.899 165.917 380.362 164.985C372.825 164.057 362.442 159.487 358.398 153.121C349.057 162.301 334.024 165.275 321.833 160.361C309.639 155.443 299.862 139.247 299.67 126.224C297.378 140.128 290.809 153.546 280.142 162.875C269.481 172.205 254.574 177.068 240.587 174.44C226.599 171.816 210.956 161.279 207.519 147.612C203.168 158.064 193.081 165.969 181.799 167.76C170.514 169.552 161.905 162.369 154.464 153.791C146.547 155.622 138.318 157.457 130.364 155.802C122.402 154.146 113.919 147.042 113.493 139.01C103.436 153.944 84.2846 162.334 66.3387 159.669C61.8328 159.001 57.3342 157.651 53.6193 155.031C49.9081 152.409 44.2009 146.552 43.7056 142.066C40.5932 146.563 34.9784 149.242 29.4819 148.859C23.9816 148.479 19.9193 145.071 17.4723 140.187C13.4321 142.65 8.24239 143.13 3.79193 141.511C11.3252 156.145 31.3744 163.855 46.0121 156.097C53.1203 167.862 71.2659 188.256 85.0867 189.276C98.9076 190.295 113.072 184.308 121.87 173.716C138.278 188.509 168.381 192.381 185.788 178.75C221.624 206.082 279.277 207.919 312.348 177.368C334.686 190.954 365.587 190.771 391.677 193.403C405.974 194.844 420.734 194.486 434.266 189.686C447.792 184.889 460.001 175.179 465.349 161.987C466.776 158.463 467.582 154.694 467.855 150.888C461.22 150.654 454.659 149.469 448.461 147.1Z" fill="#BCE0EB"/>
<path d="M250.811 144.289C244.715 149.221 236.572 151.586 228.754 150.702C220.933 149.817 213.839 146.439 209.03 140.274C200.921 145.159 192.57 150.128 183.226 151.795C173.881 153.459 163.184 151.108 157.473 143.609C161.077 153.229 168.448 160.199 178.591 162.35C188.734 164.499 199.886 161.19 207.16 153.878C214.431 157.977 223.683 159.958 231.904 158.408C240.117 156.855 245.584 150.749 250.811 144.289Z" fill="#BCE0EB"/>
<path d="M384.461 136.538C377.061 145.258 366.064 150.895 354.598 151.861C343.124 152.819 331.329 149.09 322.55 141.722C329.374 154.343 343.952 162.861 358.357 161.56C372.766 160.255 380.07 150.171 384.461 136.538Z" fill="#BCE0EB"/>
<path d="M316.98 118.895C312.666 123.981 306.257 127.267 299.57 127.822C292.887 128.385 286.004 126.21 280.885 121.918C284.866 129.273 293.363 134.241 301.765 133.482C310.16 132.721 314.422 126.842 316.98 118.895Z" fill="#BCE0EB"/>
<path d="M139.967 123.962C132.567 132.678 121.574 138.319 110.104 139.28C98.6342 140.241 86.8353 136.509 78.0564 129.149C84.8799 141.766 99.4585 150.288 113.867 148.98C128.272 147.677 135.58 137.595 139.967 123.962Z" fill="#BCE0EB"/>
<path d="M59.005 197.659C63.6033 198.946 67.8245 200.024 72.0754 200.68C76.3041 201.362 80.4921 201.692 84.6801 201.695C88.8681 201.692 93.0562 201.373 97.2848 200.698C101.536 200.054 105.761 198.99 110.366 197.722C107.491 201.538 103.384 204.317 98.9334 206.215C94.4534 208.079 89.5593 209.018 84.669 209.007C79.7824 208.997 74.892 208.05 70.4194 206.167C65.9764 204.258 61.8734 201.479 59.005 197.659Z" fill="#CCF3FF"/>
<path d="M130.356 197.216C133.957 197.853 137.076 198.493 140.181 198.903C143.26 199.344 146.254 199.625 149.256 199.772C152.261 199.908 155.263 199.918 158.371 199.775C161.502 199.67 164.666 199.337 168.318 199.063C166.163 202.024 163.025 204.047 159.65 205.384C156.253 206.698 152.549 207.256 148.89 207.07C145.234 206.89 141.612 205.973 138.359 204.342C135.136 202.679 132.208 200.368 130.356 197.216Z" fill="#CCF3FF"/>
<path d="M206.107 8.1535C209.637 4.88175 214.084 2.76091 218.734 1.43415C223.402 0.143581 228.341 -0.26954 233.19 0.161868C238.047 0.593276 242.827 1.8769 247.185 3.97508C251.521 6.10726 255.509 8.98745 258.385 12.8409C253.757 11.5255 249.517 10.2857 245.244 9.39765C240.99 8.47487 236.772 7.83216 232.521 7.44535C228.278 7.05672 224.008 6.93972 219.658 7.08962C215.285 7.20405 210.894 7.67091 206.107 8.1535Z" fill="#CCF3FF"/>
<path d="M325.245 37.2448C330.091 34.7156 335.754 33.7972 341.317 34.09C346.891 34.3755 352.443 35.8336 357.467 38.3299C362.505 40.8021 367.007 44.3225 370.585 48.5711C374.156 52.7942 376.802 57.8354 377.649 63.1907C374.019 59.1662 370.415 55.6817 366.526 52.63C362.645 49.5838 358.494 47.0389 354.158 44.8635C349.808 42.7215 345.257 40.9662 340.463 39.7082C335.658 38.4586 330.679 37.6989 325.245 37.2448Z" fill="#CCF3FF"/>
<path d="M322.617 198.064C331.865 201.155 341.006 203.794 350.273 205.714C359.536 207.577 368.862 208.876 378.248 209.3C387.622 209.862 397.04 209.552 406.451 208.671C415.87 207.739 425.24 206.082 434.773 203.991C426.36 208.924 416.993 212.261 407.349 214.308C397.705 216.403 387.744 217.061 377.856 216.602C367.972 216.005 358.143 214.305 348.776 211.201C339.41 208.148 330.461 203.846 322.617 198.064Z" fill="#CCF3FF"/>
</svg>
